<svg width="41" height="39" viewBox="0 0 41 39" fill="none" xmlns="http://www.w3.org/2000/svg">
<path d="M20.4996 35.7499C17.1194 35.7518 13.8146 34.7998 11.0034 33.0143C8.19219 31.2289 6.00103 28.6903 4.70721 25.7198C3.41339 22.7493 3.07506 19.4805 3.73506 16.3271C4.39505 13.1736 6.0237 10.2773 8.41486 8.00465C11.6199 4.95592 15.967 3.24316 20.4996 3.24316C25.0323 3.24316 29.3793 4.95592 32.5844 8.00465C35.7894 11.0534 37.59 15.1883 37.59 19.4999C37.59 23.8115 35.7894 27.9464 32.5844 30.9952C31.0006 32.5084 29.1171 33.7079 27.0427 34.524C24.9684 35.3402 22.7444 35.7569 20.4996 35.7499ZM6.83295 19.7794C6.87178 23.2149 8.33875 26.4961 10.9133 28.9059C13.4878 31.3156 16.9604 32.6579 20.5723 32.6395C24.1841 32.621 27.6414 31.2432 30.1886 28.8073C32.7357 26.3714 34.1655 23.0754 34.1655 19.6397C34.1655 16.2039 32.7357 12.9079 30.1886 10.472C27.6414 8.03607 24.1841 6.65831 20.5723 6.63984C16.9604 6.62137 13.4878 7.9637 10.9133 10.3734C8.33875 12.7832 6.87178 16.0644 6.83295 19.4999V19.7794ZM16.0733 25.9999L13.6646 23.7087L18.0909 19.4999L13.6663 15.2912L16.075 12.9999L20.4996 17.2087L24.9242 12.9999L27.3329 15.2912L22.9084 19.4999L27.3329 23.7087L24.9276 25.9999L20.4996 21.7912L16.075 25.9999H16.0733Z" fill="#111827" fill-opacity="0.39"/>
</svg>
