<svg width="24" height="21" viewBox="0 0 24 21" fill="none" xmlns="http://www.w3.org/2000/svg">
<path d="M12 15.75L7.43249 10.1062C6.68488 9.33389 6.20343 8.39157 6.04421 7.38904C5.88499 6.38651 6.05456 5.36503 6.53317 4.44357C7.01178 3.52211 7.77973 2.73859 8.74759 2.18426C9.71544 1.62993 10.8434 1.32761 12 1.3125C13.6033 1.32636 15.135 1.89564 16.2596 2.89565C17.3842 3.89565 18.01 5.24488 18 6.64781C18.0006 7.87168 17.5244 9.05916 16.65 10.0144L12 15.75ZM12 2.625C10.7939 2.63712 9.64257 3.06756 8.79885 3.82181C7.95514 4.57605 7.48799 5.59245 7.49999 6.64781C7.50502 7.61107 7.90108 8.54142 8.61749 9.27281L12 13.4663L15.4725 9.1875C16.1326 8.46657 16.4947 7.57155 16.5 6.64781C16.512 5.59245 16.0449 4.57605 15.2011 3.82181C14.3574 3.06756 13.2061 2.63712 12 2.625Z" fill="#4F5665"/>
<path d="M12 7.21875C12.8284 7.21875 13.5 6.63112 13.5 5.90625C13.5 5.18138 12.8284 4.59375 12 4.59375C11.1716 4.59375 10.5 5.18138 10.5 5.90625C10.5 6.63112 11.1716 7.21875 12 7.21875Z" fill="#4F5665"/>
<path d="M21 7.875H19.5V9.1875H21V18.375H3V9.1875H4.5V7.875H3C2.60218 7.875 2.22064 8.01328 1.93934 8.25942C1.65804 8.50556 1.5 8.8394 1.5 9.1875V18.375C1.5 18.7231 1.65804 19.0569 1.93934 19.3031C2.22064 19.5492 2.60218 19.6875 3 19.6875H21C21.3978 19.6875 21.7794 19.5492 22.0607 19.3031C22.342 19.0569 22.5 18.7231 22.5 18.375V9.1875C22.5 8.8394 22.342 8.50556 22.0607 8.25942C21.7794 8.01328 21.3978 7.875 21 7.875Z" fill="#4F5665"/>
</svg>
