<svg width="59" height="55" viewBox="0 0 59 55" fill="none" xmlns="http://www.w3.org/2000/svg">
<path d="M29.5 47.3C22.125 47.3 15.6055 43.78 11.8 38.5C11.8885 33 23.6 29.975 29.5 29.975C35.4 29.975 47.1115 33 47.2 38.5C45.2497 41.2071 42.6153 43.4257 39.5287 44.9602C36.4421 46.4948 32.9981 47.2983 29.5 47.3ZM29.5 8.25C31.8472 8.25 34.0982 9.11919 35.7579 10.6664C37.4176 12.2135 38.35 14.312 38.35 16.5C38.35 18.688 37.4176 20.7865 35.7579 22.3336C34.0982 23.8808 31.8472 24.75 29.5 24.75C27.1528 24.75 24.9018 23.8808 23.2421 22.3336C21.5824 20.7865 20.65 18.688 20.65 16.5C20.65 14.312 21.5824 12.2135 23.2421 10.6664C24.9018 9.11919 27.1528 8.25 29.5 8.25ZM29.5 0C25.626 0 21.7899 0.711309 18.2108 2.09331C14.6317 3.47532 11.3797 5.50095 8.64035 8.05456C3.10803 13.2118 0 20.2065 0 27.5C0 34.7935 3.10803 41.7882 8.64035 46.9454C11.3797 49.499 14.6317 51.5247 18.2108 52.9067C21.7899 54.2887 25.626 55 29.5 55C37.3239 55 44.8273 52.1027 50.3596 46.9454C55.892 41.7882 59 34.7935 59 27.5C59 12.2925 45.725 0 29.5 0Z" fill="black"/>
</svg>
