<svg width="55" height="49" viewBox="0 0 55 49" fill="none" xmlns="http://www.w3.org/2000/svg">
<path d="M27.5 0C12.3122 0 0 10.969 0 24.5C0 38.031 12.3122 49 27.5 49C42.6878 49 55 38.031 55 24.5C55 10.969 42.6878 0 27.5 0ZM27.5 8.29925C35.071 8.29925 41.2097 13.7683 41.2097 20.5134C41.2097 22.5565 40.5813 25.2537 39.2895 26.7789L27.5 40.7007L15.7104 26.7789C14.2883 25.0998 13.7902 22.7692 13.7902 20.5134C13.7903 13.7683 19.929 8.29925 27.5 8.29925ZM27.5 15.3753C24.3144 15.3753 21.7328 17.6753 21.7328 20.5134C21.7328 23.3514 24.3144 25.6514 27.5 25.6514C30.6856 25.6514 33.2672 23.3514 33.2672 20.5134C33.2672 17.6753 30.6856 15.3753 27.5 15.3753Z" fill="#EFCF2A"/>
</svg>
